<svg width="37" height="36" viewBox="0 0 37 36" fill="none" xmlns="http://www.w3.org/2000/svg">
<circle cx="18.9141" cy="18" r="18" fill="#FF7F93"/>
<path d="M25.4633 13.3825C23.8595 16.9538 22.2979 20.4421 20.5253 23.8473C20.4045 24.1439 20.208 24.4048 19.9548 24.6049C19.7016 24.8049 19.4002 24.9373 19.0798 24.9893H18.9004C18.5827 24.9787 18.2716 24.8975 17.9902 24.7519C17.7088 24.6062 17.4645 24.4 17.2756 24.1484C15.4291 21.9786 14.7538 21.1066 13.2661 19.1755L12.6541 18.3035C12.4428 18.0994 12.2758 17.8553 12.1634 17.5858C12.0509 17.3163 11.9953 17.0271 12 16.7358C12.0297 16.5601 12.0967 16.3926 12.1967 16.2441C12.2967 16.0956 12.4274 15.9695 12.5803 15.8741C13.6354 15.1266 14.3318 15.9468 14.7538 16.4451L14.9754 16.6839C15.5851 17.3405 16.1525 18.034 16.6741 18.7603L16.7269 18.8329C16.7595 18.8613 16.7849 18.8969 16.8008 18.9368L18.4573 20.9612L18.7422 20.4006L19.1115 19.6531C19.2486 19.3624 19.3858 19.0925 19.523 18.8329L20.1666 17.5767C21.0212 15.8949 21.9603 14.0988 22.9521 12.3858C23.1166 12.071 23.3801 11.817 23.7034 11.6617C24.0267 11.5064 24.3924 11.4581 24.7458 11.5242C25.0794 11.69 25.338 11.9726 25.4708 12.3164C25.6035 12.6603 25.6009 13.0405 25.4633 13.3825V13.3825Z" fill="white"/>
</svg>
