<svg width="124" height="133" viewBox="0 0 124 133" fill="none" xmlns="http://www.w3.org/2000/svg">
<path d="M11.6827 127.378C19.3806 126.014 26.7616 124.676 34.1424 123.365C35.6128 123.097 36.6508 122.91 38.552 122.865C39.9636 122.817 42.9592 122.777 42.6917 124.234C42.3393 125.415 41.9315 126.211 39.4217 126.914C32.9311 128.697 26.2154 129.544 19.5571 130.418C13.6771 131.186 9.18112 131.686 3.93694 132.072C1.48773 132.252 0.515083 131.092 0.815342 128.947C1.08554 127.022 1.32725 125.042 1.9714 123.201C4.25589 116.554 6.71271 109.99 9.11225 103.37C9.40497 102.546 9.58155 101.886 10.0765 100.953C10.6878 99.8283 11.0671 98.9772 12.3036 99.3137C13.4828 99.6224 13.4157 101.273 13.2094 102.098C11.6434 109.024 8.16352 123.26 8.15897 124.058C11.9451 121.766 15.4994 119.72 18.9397 117.481C42.8198 101.78 65.3259 84.5862 83.2804 62.4984C97.4932 45.0145 109.294 26.225 118.052 5.71394C118.577 4.50584 119.217 3.32583 119.857 2.20087C120.701 0.664188 121.425 0.00742848 122.287 0.369543C123.809 1.25784 123.514 2.4396 123.364 3.40196C123.094 5.32681 122.392 7.22194 121.719 9.06219C112.449 33.5882 97.8104 55.0325 80.1576 74.7278C62.041 94.9436 39.9476 110.461 16.3953 124.238C15.1241 124.919 12.1463 126.885 11.6827 127.378Z" fill="#1B4DEB"/>
</svg>
