<svg width="132" height="113" viewBox="0 0 132 113" fill="none" xmlns="http://www.w3.org/2000/svg">
<path d="M121.827 106.991C114.862 107.113 108.178 107.199 101.499 107.312C100.167 107.328 99.2272 107.341 97.5613 107.666C96.3219 107.893 93.703 108.436 94.2082 109.856C94.7359 110.98 95.2399 111.705 97.5589 111.926C103.55 112.463 109.562 112.009 115.53 111.595C120.799 111.226 124.812 110.855 129.455 110.223C131.624 109.928 132.255 108.566 131.593 106.458C130.998 104.567 130.418 102.614 129.513 100.88C126.281 94.61 122.914 88.4578 119.587 82.2386C119.178 81.4632 118.901 80.8314 118.295 79.9853C117.552 78.9678 117.063 78.182 116.048 78.7628C115.077 79.3043 115.444 80.9587 115.778 81.7513C118.435 88.443 124.126 102.146 124.279 102.951C120.551 101.373 117.07 99.9991 113.654 98.4076C89.9057 87.1993 67.0769 74.2152 47.3026 55.401C31.6495 40.5086 17.8552 23.8274 6.39249 4.81435C5.70905 3.69634 4.93057 2.62912 4.16263 1.61744C3.14004 0.229586 2.3865 -0.292806 1.70264 0.240905C0.542126 1.43459 1.01965 2.57093 1.3296 3.51392C1.92441 5.40565 2.89014 7.18324 3.82025 8.91106C16.4791 31.8799 33.2427 50.69 52.3075 67.1461C71.8737 84.0377 94.0297 95.4087 117.133 104.737C118.368 105.178 121.331 106.584 121.827 106.991Z" fill="#8973D2"/>
</svg>
