<svg width="123" height="140" viewBox="0 0 123 140" fill="none" xmlns="http://www.w3.org/2000/svg">
<path d="M10.9357 134.417C18.6337 132.985 26.0146 131.58 33.3954 130.204C34.8659 129.923 35.9038 129.727 37.805 129.679C39.2166 129.629 42.2122 129.587 41.9447 131.116C41.5923 132.357 41.1846 133.192 38.6748 133.93C32.1841 135.802 25.4684 136.69 18.8101 137.608C12.9301 138.414 8.43417 138.939 3.18998 139.344C0.740783 139.533 -0.231872 138.315 0.0683859 136.063C0.338588 134.043 0.580296 131.964 1.22444 130.033C3.50893 123.054 5.96576 116.164 8.36529 109.215C8.65801 108.35 8.8346 107.658 9.32956 106.679C9.94082 105.498 10.3201 104.604 11.5567 104.957C12.7358 105.282 12.6688 107.014 12.4625 107.88C10.8964 115.15 7.41656 130.094 7.41201 130.932C11.1982 128.526 14.7525 126.379 18.1927 124.028C42.0728 107.547 64.5789 89.498 82.5334 66.3123C96.7462 47.9593 108.547 28.2359 117.305 6.70536C117.83 5.43721 118.47 4.19856 119.11 3.01768C119.954 1.40461 120.678 0.715207 121.54 1.09532C123.062 2.02777 122.767 3.26828 122.617 4.27846C122.347 6.29899 121.645 8.28832 120.972 10.22C111.702 35.9651 97.0635 58.4753 79.4106 79.1496C61.294 100.37 39.2007 116.659 15.6484 131.12C14.3772 131.836 11.3994 133.9 10.9357 134.417Z" fill="#8973D2"/>
</svg>
