<svg width="94" height="127" viewBox="0 0 94 127" fill="none" xmlns="http://www.w3.org/2000/svg">
<path d="M85.1014 118.61C77.4371 108.38 69.7993 98.1473 62.0353 87.9813C61.5019 87.2736 60.0707 86.9039 59.0851 86.9343C35.5805 87.8054 17.3298 78.2779 4.26792 59.2055C2.09631 56.035 0.913622 52.146 0.790189 47.6894C0.614825 41.8102 4.87643 37.606 10.8309 37.5514C16.0375 37.5008 20.4947 39.5968 24.7669 42.1896C34.2055 47.9633 41.9651 55.6962 49.4312 63.6734C54.1653 68.7277 58.5825 74.0553 63.2959 79.4028C65.9868 77.6484 67.6287 73.921 67.0263 70.9197C65.9092 65.2246 64.2828 62.6283 62.0561 58.4852C55.0711 45.4815 45.2044 34.6767 33.8232 25.3895C25.3532 18.4764 16.3901 12.1736 7.63839 5.60919C6.87903 5.03244 6.0463 4.51676 5.36614 3.93119C4.30193 3.01806 3.81853 2.04026 4.37061 1.00007C4.72913 -0.0979164 6.48896 0.102928 7.41868 0.290387C8.94965 0.596067 10.4628 1.22115 11.7823 2.02651C32.718 14.5351 51.3937 29.5437 64.6893 50.23C67.6022 54.7729 69.8489 59.8131 71.7495 64.8654C74.4584 72.129 73.6388 78.9126 66.8745 84.1625C73.8173 94.1554 80.6634 104 87.6355 114.016C87.1979 110.097 86.7836 106.387 86.3664 102.651C86.2964 102.024 86.1472 101.406 86.13 100.773C86.0724 99.06 85.4783 96.8513 87.9424 96.4183C90.3538 95.9911 90.634 98.2612 90.8267 99.7475C91.8547 107.278 92.8063 114.843 93.4647 122.414C93.7297 125.506 91.8367 127.224 88.8982 126.282C80.3699 123.634 71.9299 120.579 63.5398 117.493C62.7597 117.209 61.4757 116.003 62.0486 114.432C62.6125 113.258 64.4107 113.084 65.3199 113.327C70.8041 114.806 76.2354 116.529 81.6873 118.197C82.6551 118.486 83.6287 118.827 84.5995 119.142C86.1301 119.924 85.6992 119.417 85.1014 118.61ZM56.885 82.3121C57.8442 82.2846 56.4458 81.0119 56.2612 80.7944C46.5972 69.4116 36.5957 58.3573 24.3165 49.6462C21.0356 47.3134 17.2206 45.4633 13.3671 44.2259C8.24078 42.6011 5.14138 45.7237 6.70461 50.8664C7.71751 54.1924 9.24659 57.5931 11.3715 60.3456C20.3519 72.0691 36.2274 80.4326 46.9944 81.8262C51.1124 82.3199 52.2213 82.1965 56.885 82.3121Z" fill="#1B4DEB"/>
</svg>
