<svg width="94" height="122" viewBox="0 0 94 122" fill="none" xmlns="http://www.w3.org/2000/svg">
<path d="M84.8483 113.66C77.1841 103.915 69.5463 94.1665 61.7823 84.4819C61.2489 83.8077 59.8177 83.4555 58.8321 83.4844C35.3275 84.3143 17.0768 75.2379 4.01489 57.0687C1.84329 54.0483 0.6606 50.3434 0.537171 46.0978C0.361804 40.497 4.62341 36.4919 10.5779 36.4399C15.7845 36.3917 20.2417 38.3885 24.5139 40.8584C33.9525 46.3588 41.7121 53.7255 49.1782 61.325C53.9123 66.1399 58.3295 71.2153 63.0429 76.3096C65.7337 74.6382 67.3757 71.0874 66.7733 68.2281C65.6562 62.8028 64.0298 60.3293 61.8031 56.3824C54.8181 43.9945 44.9514 33.7013 33.5702 24.8539C25.1002 18.2681 16.1371 12.2637 7.38537 6.01019C6.62601 5.46075 5.79327 4.96949 5.11312 4.41165C4.04891 3.54175 3.56551 2.61025 4.11759 1.61932C4.47611 0.57332 6.23594 0.764654 7.16566 0.943236C8.69663 1.23444 10.2098 1.82993 11.5293 2.59715C32.465 14.5134 51.1407 28.8113 64.4363 48.5182C67.3491 52.8459 69.5959 57.6474 71.4965 62.4605C74.2054 69.3802 73.3858 75.8426 66.6215 80.8439C73.5643 90.3636 80.4104 99.7424 87.3825 109.284C86.9449 105.551 86.5306 102.016 86.1134 98.4571C86.0434 97.8598 85.8942 97.2708 85.877 96.6679C85.8193 95.036 85.2252 92.9319 87.6894 92.5193C90.1008 92.1124 90.381 94.275 90.5737 95.6909C91.6016 102.864 92.5533 110.071 93.2116 117.284C93.4767 120.23 91.5837 121.867 88.6452 120.969C80.1169 118.446 71.6769 115.536 63.2868 112.596C62.5067 112.326 61.2227 111.177 61.7956 109.68C62.3595 108.562 64.1577 108.396 65.0668 108.627C70.5511 110.036 75.9824 111.678 81.4343 113.267C82.4021 113.542 83.3757 113.867 84.3464 114.167C85.8771 114.912 85.4462 114.429 84.8483 113.66ZM56.632 79.0811C57.5912 79.055 56.1928 77.8425 56.0082 77.6353C46.3442 66.7914 36.3426 56.2606 24.0635 47.962C20.7826 45.7397 16.9676 43.9772 13.1141 42.7983C7.98776 41.2505 4.88836 44.2252 6.4516 49.1244C7.46448 52.2929 8.99357 55.5326 11.1185 58.1548C20.0989 69.3231 35.9744 77.2907 46.7414 78.6182C50.8594 79.0886 51.9682 78.971 56.632 79.0811Z" fill="#FF8C9E"/>
</svg>
