<svg width="150" height="189" viewBox="0 0 150 189" fill="none" xmlns="http://www.w3.org/2000/svg">
<path d="M0.425779 5.57016C0.238903 4.4983 0.474657 3.39113 1.0841 2.4787C1.69354 1.56627 2.62982 0.918711 3.6984 0.67052C5.30676 0.378155 6.96087 0.62952 8.39691 1.38454C10.1422 2.23108 11.8167 3.21327 13.405 4.32209C15.3088 5.52831 18.0665 7.28811 19.8219 8.71349C21.9457 10.4365 33.6018 20.6761 35.1439 22.2735C37.434 24.6446 42.8118 31.264 43.77 32.5407C44.4149 33.4496 45.0598 34.3586 45.7682 35.357C49.2329 32.2052 52.9621 32.9858 55.8561 34.0071C58.4571 34.9257 60.3551 36.8918 62.4712 38.6927C66.2021 41.9088 69.6824 45.4019 72.8827 49.1424C82.9872 60.6071 90.9378 73.6 99.9165 85.9152C101.854 88.5572 103.608 91.3396 105.399 94.0855C109.6 100.518 113.771 106.959 117.913 113.406C119.114 115.277 128.221 131.052 129.115 132.902C130.21 135.169 134.851 144.547 135.857 146.835C137.18 149.778 140.906 158.781 141.462 160.26C142.019 161.739 142.514 163.396 143.07 164.948C143.52 166.233 145.344 171.772 145.81 173.242C146.107 174.221 146.451 175.178 146.748 176.158C147.565 178.787 148.327 181.456 149.079 184.111C149.168 184.4 149.295 185.066 149.416 185.694C149.524 186.197 149.467 186.723 149.252 187.194C149.037 187.665 148.676 188.057 148.223 188.311C146.235 189.379 144.738 186.353 144.539 185.955C144.039 184.667 143.632 183.343 143.322 181.995C143.078 181.133 143.004 180.305 142.737 179.501C141.726 176.45 140.651 173.414 139.615 170.329C138.847 168.006 131.318 149.3 130.408 147.368C129.498 145.436 119.472 126.047 117.818 122.977C117.632 122.715 117.5 122.426 117.322 122.159C111.689 113.526 106.27 104.751 100.458 96.235C91.5754 83.2133 82.5466 70.2712 73.3715 57.4086C63.8848 45.7955 56.5465 39.8839 53.9696 38.4823C52.8164 37.6545 48.9236 37.4558 49.4819 39.3061L50.7375 41.0758C55.2957 47.5002 60.0868 53.7802 64.3195 60.4253C66.588 63.9918 67.9712 68.1865 66.5443 72.7187C65.5942 75.722 63.1711 77.3584 60.6033 78.259C57.675 79.3014 54.864 78.1902 52.8882 75.6271C47.2625 68.3037 46.0664 64.5353 45.3559 62.3375C44.5009 59.9335 43.8473 57.4611 43.4017 54.9453C42.9981 52.0913 42.8028 49.2096 42.8171 46.3226C42.8106 44.6295 43.3186 42.9233 43.4794 41.215C43.4764 40.6685 43.293 40.1402 42.9576 39.7115C41.2352 37.3724 39.5266 35.0235 37.6857 32.7685C36.3213 31.0967 34.8434 29.5159 33.3724 27.9301C32.2141 26.6815 30.277 24.6604 29.0817 23.4483C27.8865 22.2363 26.6953 21.0007 25.4973 19.8734C23.5994 18.1143 21.7016 16.3552 19.7355 14.7066C17.5168 12.8646 15.2772 11.0374 12.8961 9.42442C10.7804 8.07535 8.59425 6.83798 6.34646 5.71731C6.19563 5.63775 6.02973 5.5899 5.85892 5.57667C5.1504 5.48549 4.43108 5.67605 3.85641 6.10717C3.49884 6.45575 3.04802 6.69388 2.55935 6.79233C2.07068 6.89077 1.56542 6.84523 1.10565 6.66132C0.911064 6.54933 0.747425 6.39139 0.628942 6.20124C0.51046 6.01108 0.440724 5.79445 0.425779 5.57016ZM47.983 46.0115C47.8885 46.7669 47.8361 47.5263 47.826 48.2865C47.9412 50.7825 49.4436 59.6649 50.1804 61.4714C51.1747 63.9778 52.4146 66.3782 53.882 68.6382C54.5836 69.8116 55.3758 70.9281 56.2515 71.9779C56.8934 72.6683 57.7847 73.0771 58.7336 73.1163C59.6825 73.1555 60.6133 72.8219 61.3256 72.1873C62.1648 71.4056 62.2605 70.5509 62.1075 68.8582C61.8327 66.6209 61.075 64.4747 59.8862 62.5666C56.4354 57.3336 48.4854 46.5867 47.9482 46.0362L47.983 46.0115Z" fill="#FFE04A"/>
</svg>
