<svg width="119" height="179" viewBox="0 0 119 179" fill="none" xmlns="http://www.w3.org/2000/svg">
<path d="M112.741 1.034C113.591 0.568761 114.589 0.448527 115.529 0.698292C116.47 0.948045 117.28 1.54861 117.791 2.37517C118.492 3.64263 118.748 5.10485 118.519 6.52866C118.301 8.23867 117.948 9.92817 117.464 11.5816C116.988 13.5282 116.287 16.3515 115.584 18.2364C114.735 20.5165 109.416 33.2554 108.508 35.0105C107.161 37.6167 103.112 44.0389 102.308 45.2112C101.726 46.0145 101.143 46.8177 100.504 47.7001C104.136 49.7052 104.535 53.0634 104.494 55.7888C104.457 58.2386 103.339 60.3988 102.423 62.6948C100.772 66.7547 98.8168 70.6835 96.5744 74.4483C89.7851 86.2356 81.1003 96.6524 73.2767 107.738C71.6015 110.126 69.7562 112.4 67.9521 114.695C63.727 120.074 59.4872 125.431 55.233 130.765C53.9989 132.312 43.2999 144.501 41.9955 145.784C40.3976 147.356 33.8188 153.952 32.1772 155.455C30.0747 157.414 23.5524 163.133 22.4654 164.026C21.3784 164.919 20.1236 165.811 18.975 166.725C18.0211 167.473 13.8758 170.597 12.7706 171.412C12.03 171.944 11.3218 172.507 10.5813 173.039C8.59992 174.482 6.56948 175.889 4.54787 177.284C4.33036 177.442 3.8058 177.74 3.31115 178.023C2.91872 178.258 2.45983 178.361 2.00241 178.316C1.54499 178.271 1.11335 178.08 0.771399 177.773C-0.690289 176.41 1.43302 174.281 1.71155 174C2.65424 173.209 3.65304 172.487 4.70027 171.838C5.35624 171.385 6.03191 171.085 6.63342 170.63C8.91441 168.903 11.1657 167.126 13.4687 165.369C15.2063 164.055 28.8185 152.35 30.1871 151.03C31.5558 149.71 45.0359 135.711 47.1517 133.437C47.3194 133.206 47.5256 133.012 47.6994 132.785C53.3711 125.57 59.2223 118.493 64.745 111.161C73.1903 99.9524 81.5273 88.6441 89.756 77.2358C96.845 65.9249 99.7437 58.0587 100.194 55.4904C100.564 54.2833 99.6301 50.9551 98.2309 51.9562L97.0968 53.5201C92.9799 59.1977 89.0505 65.0293 84.6559 70.4968C82.2962 73.4285 79.1575 75.797 74.9395 75.9011C72.1431 75.9662 70.0803 74.4006 68.5958 72.5018C66.8899 70.3409 67.0296 67.6593 68.6276 65.2621C73.199 58.4291 76.032 56.3404 77.6806 55.1114C79.4618 53.7018 81.3576 52.4416 83.3487 51.3439C85.6364 50.1841 88.0063 49.1913 90.44 48.3733C91.863 47.881 93.4427 47.8173 94.9259 47.4612C95.385 47.3015 95.7777 46.9955 96.0436 46.5904C97.5247 44.4705 99.0181 42.3594 100.395 40.164C101.416 38.5369 102.328 36.8404 103.246 35.1484C103.969 33.816 105.122 31.6072 105.804 30.2543C106.486 28.9014 107.189 27.5452 107.798 26.2143C108.742 24.1138 109.685 22.0132 110.516 19.887C111.439 17.493 112.343 15.0857 113.026 12.6211C113.563 10.4554 113.986 8.26252 114.293 6.05147C114.317 5.90185 114.31 5.74869 114.273 5.60135C114.149 4.97976 113.786 4.43011 113.26 4.07116C112.866 3.87093 112.538 3.56059 112.316 3.17827C112.095 2.79593 111.991 2.35826 112.015 1.91903C112.055 1.72332 112.141 1.5404 112.268 1.38616C112.394 1.23193 112.557 1.11104 112.741 1.034ZM92.1636 52.6247C91.5012 52.7625 90.8472 52.9369 90.2046 53.147C88.1366 53.9614 81.0864 57.7779 79.7746 58.9165C77.9466 60.4727 76.2773 62.2047 74.7906 64.0877C74.0016 65.0145 73.2861 66.0013 72.6505 67.039C72.251 67.7769 72.1592 68.6434 72.3947 69.452C72.6303 70.2607 73.1744 70.9469 73.91 71.363C74.8053 71.8434 75.5517 71.6781 76.933 71.0628C78.7381 70.1886 80.3299 68.9347 81.5993 67.3872C85.0268 62.9828 91.8217 53.2123 92.1329 52.6026L92.1636 52.6247Z" fill="#FF8C9E"/>
</svg>
