<svg width="116" height="132" viewBox="0 0 116 132" fill="none" xmlns="http://www.w3.org/2000/svg">
<path d="M50.7892 114.999C49.1525 113.688 47.987 112.695 46.8936 111.764C45.4828 110.562 44.192 109.462 42.1639 107.915C40.9897 107.019 39.6991 106.192 38.5196 105.438C37.186 104.571 35.2957 104.045 33.968 105.31C32.7619 106.363 33.997 108.838 34.8757 109.701C40.2965 114.921 45.8929 119.97 51.4785 125.01L51.4809 125.012L51.5535 125.078C52.3485 125.795 53.1433 126.512 53.9374 127.23C55.4166 128.578 57.0283 129.822 58.6863 130.881C61.7371 132.814 64.5465 131.885 65.1749 128.373C66.8145 119.273 68.1837 110.131 69.4937 100.981C69.6323 100.033 69.2721 98.253 68.043 97.91C66.8176 97.734 65.8701 99.4235 65.6813 100.39C64.9045 103.953 64.2685 107.539 63.6307 111.135C63.3848 112.521 63.1385 113.91 62.8838 115.299C62.7272 116.198 62.5455 117.106 62.5152 117.257C60.4297 111.426 58.3394 105.552 56.2392 99.6504C50.6621 83.9786 45.015 68.11 39.2006 52.3165C35.0337 40.98 30.562 29.7357 26.0938 18.5005C24.9233 15.557 23.7529 12.6141 22.5884 9.67037C20.9269 5.4676 19.03 3.90512 17 5.03017C13.9297 6.73805 14.9342 9.25284 15.8236 11.4793C15.9319 11.7504 16.0384 12.0172 16.1357 12.2778C20.3058 23.6914 24.5197 35.0892 28.7336 46.487C32.9475 57.8848 37.1613 69.2826 41.3313 80.6962C44.1033 88.3075 46.745 95.9659 49.3867 103.624C50.5871 107.105 51.7876 110.585 53.0003 114.061C53.207 114.632 54.1521 117.324 54.3337 117.905C53.3368 117.028 52.1016 116.042 50.7892 114.999Z" fill="#FF8C9E"/>
<path d="M9.20204 106.029L9.20207 106.028C9.38222 102.125 9.55159 98.4552 9.58887 94.7814C9.59153 94.6017 9.59823 94.4153 9.60664 94.2244C9.61206 94.1012 9.61821 93.9761 9.62441 93.8497C9.72927 91.7093 9.8532 89.1803 6.90452 88.9257C3.83785 88.6693 3.6265 91.2496 3.45143 93.387C3.42798 93.673 3.40519 93.9511 3.37632 94.2134C2.48929 101.947 1.80466 109.691 1.129 117.46C0.943374 119.69 1.13377 121.783 3.63931 123.07C6.29003 124.445 8.07977 123.126 9.89081 121.63C16.8952 115.847 22.7486 109.075 27.1264 101.122C27.5716 100.316 28.0035 98.9247 27.175 98.044C26.1838 97.4186 24.9167 98.3809 24.2492 99.0428C22.7826 100.448 21.4209 101.979 19.8319 103.765C19.2322 104.439 18.6001 105.149 17.9178 105.903C21.9115 89.1308 21.4245 73.1318 19.0514 57.167C16.8064 42.0266 13.3724 27.2025 6.40726 13.427C5.89566 12.4041 5.3159 11.3494 4.61462 10.5071C4.56864 10.4529 4.52419 10.4002 4.48106 10.3491C3.55032 9.24591 3.24318 8.88188 1.71135 9.13904C0.483056 9.58193 0.440343 11.4226 0.606222 12.4298C0.985228 14.5269 1.61972 16.6016 2.25075 18.6648C2.42093 19.2213 2.59085 19.7769 2.75544 20.3319C9.04639 41.5672 13.4748 63.1372 13.3293 85.4578C13.2704 93.6786 12.8657 101.884 9.86692 109.733C9.65782 110.173 9.44876 110.613 8.95204 111.747C9.0292 109.772 9.11684 107.875 9.20204 106.029Z" fill="#FF8C9E"/>
<path d="M90.1594 74.1972C90.3113 74.2032 90.4631 74.2092 90.6147 74.2146C94.054 74.3224 101.07 74.2918 101.084 74.1743C100.308 73.7522 99.5334 73.328 98.7585 72.9037C96.4332 71.6307 94.1079 70.3577 91.7555 69.1419C70.1823 57.9098 51.6429 43.0005 36.9802 23.6886C33.5596 19.161 30.885 14.0268 28.2304 8.93096C27.6372 7.79228 27.045 6.65549 26.4457 5.52781C25.8211 4.34899 25.4255 1.37465 26.8293 0.868497C28.117 0.404171 29.5352 2.21444 30.4346 3.36257L30.5185 3.46962C32.4319 5.90962 34.2811 8.40168 36.1295 10.8928C39.1069 14.9054 42.0826 18.9157 45.3226 22.7024C61.5971 41.7701 82.052 55.7079 103.562 68.2544C103.844 68.4057 105.548 69.2794 104.89 68.4777C103.933 66.8608 102.985 65.2803 102.049 63.7214C99.9182 60.1707 97.8549 56.7326 95.9204 53.2347C95.7694 52.9629 95.5899 52.6778 95.4047 52.3837C94.3941 50.7793 93.2145 48.9066 95.588 47.4575C98.0764 45.9597 99.446 48.1431 100.517 49.8512C100.598 49.98 100.677 50.1061 100.755 50.2277C105.392 57.4857 109.953 64.7707 114.382 72.1596C117.427 77.2113 115.582 80.5722 109.635 80.5823C106.827 80.5811 104.001 80.2054 101.175 79.8299C100.323 79.7166 99.4702 79.6033 98.6183 79.5003C97.9719 79.4202 97.3244 79.3421 96.6766 79.2639C93.5491 78.8866 90.4125 78.5082 87.3284 77.8988C86.2283 77.6777 84.4581 77.2489 84.3722 75.6793C84.3695 74.8097 85.707 74.3556 87.464 74.1994C88.3361 74.1257 89.2477 74.1615 90.1594 74.1972Z" fill="#FF8C9E"/>
</svg>
