<svg width="108" height="28" viewBox="0 0 108 28" fill="none" xmlns="http://www.w3.org/2000/svg">
<g clip-path="url(#clip0_1_572)">
<path d="M16.5684 27.6856H0.0859375L8.41026 12.975H0.0859375V7.95459H16.5684L8.24415 22.6652H16.5684V27.6856Z" fill="url(#paint0_linear_1_572)"/>
<path d="M24.4498 27.6855H19.374V0.0546875H24.4498V17.4785L31.962 7.95449H37.7576L31.2052 16.1865L37.7576 27.6855H31.962L27.9567 20.5056L24.4498 25.1568V27.6855Z" fill="url(#paint1_linear_1_572)"/>
<path d="M61.7049 19.6941C61.7049 20.7893 61.4958 21.8167 61.0774 22.7765C60.659 23.7363 60.0868 24.5792 59.3608 25.3052C58.6471 26.0189 57.8104 26.5849 56.8507 27.0033C55.8909 27.4217 54.8633 27.6308 53.7682 27.6308H40.5341V1.16284H53.7682C54.8633 1.16284 55.8909 1.37203 56.8507 1.7904C57.8104 2.20877 58.6471 2.78095 59.3608 3.50694C60.0868 4.22063 60.659 5.05737 61.0774 6.01716C61.4958 6.97695 61.7049 8.00441 61.7049 9.09956C61.7049 9.59176 61.6373 10.0962 61.5019 10.6131C61.3666 11.1299 61.1758 11.6282 60.9297 12.1081C60.6836 12.588 60.3883 13.0248 60.0438 13.4186C59.6993 13.8123 59.3177 14.1384 58.8993 14.3968C59.33 14.6306 59.7176 14.9506 60.0622 15.3566C60.4067 15.7504 60.7021 16.1872 60.9482 16.6671C61.1943 17.147 61.3789 17.6515 61.5019 18.1806C61.6373 18.6974 61.7049 19.2019 61.7049 19.6941ZM45.8314 22.3336H53.7682C54.1373 22.3336 54.4818 22.2659 54.8018 22.1305C55.1217 21.9952 55.3987 21.8106 55.6325 21.5768C55.8786 21.3307 56.0692 21.0477 56.2045 20.7278C56.3399 20.4078 56.4076 20.0633 56.4076 19.6941C56.4076 19.325 56.3399 18.9804 56.2045 18.6605C56.0692 18.3406 55.8786 18.0637 55.6325 17.8299C55.3987 17.5838 55.1217 17.3931 54.8018 17.2577C54.4818 17.1224 54.1373 17.0547 53.7682 17.0547H45.8314V22.3336ZM45.8314 11.7574H53.7682C54.1373 11.7574 54.4818 11.6897 54.8018 11.5544C55.1217 11.419 55.3987 11.2345 55.6325 11.0007C55.8786 10.7546 56.0692 10.4715 56.2045 10.1516C56.3399 9.8194 56.4076 9.46871 56.4076 9.09956C56.4076 8.73041 56.3399 8.38587 56.2045 8.06594C56.0692 7.74601 55.8786 7.46915 55.6325 7.23535C55.3987 6.98925 55.1217 6.79853 54.8018 6.66317C54.4818 6.52782 54.1373 6.46014 53.7682 6.46014H45.8314V11.7574Z" fill="#2A1B5B"/>
<path d="M84.2784 17.5716C84.2784 19.0482 84.0138 20.4264 83.4847 21.7061C82.9556 22.9735 82.2357 24.0748 81.3252 25.01C80.4146 25.9329 79.3441 26.665 78.1136 27.2064C76.8954 27.7355 75.5849 28.0001 74.1821 28.0001C72.7917 28.0001 71.4812 27.7355 70.2507 27.2064C69.0325 26.665 67.962 25.9329 67.0391 25.01C66.1285 24.0748 65.4087 22.9735 64.8796 21.7061C64.3504 20.4264 64.0859 19.0482 64.0859 17.5716C64.0859 16.0704 64.3504 14.68 64.8796 13.4002C65.4087 12.1205 66.1285 11.0192 67.0391 10.0963C67.962 9.16113 69.0325 8.42899 70.2507 7.89987C71.4812 7.37076 72.7917 7.1062 74.1821 7.1062C75.5849 7.1062 76.8954 7.35845 78.1136 7.86296C79.3441 8.35516 80.4146 9.06269 81.3252 9.98557C82.2357 10.8962 82.9556 11.9975 83.4847 13.2895C84.0138 14.5692 84.2784 15.9966 84.2784 17.5716ZM79.2026 17.5716C79.2026 16.7595 79.0672 16.0273 78.7965 15.3752C78.5381 14.7107 78.1813 14.1447 77.726 13.6771C77.2707 13.1972 76.7354 12.8342 76.1202 12.5881C75.5172 12.3297 74.8712 12.2005 74.1821 12.2005C73.4931 12.2005 72.8409 12.3297 72.2256 12.5881C71.6227 12.8342 71.0936 13.1972 70.6383 13.6771C70.1953 14.1447 69.8446 14.7107 69.5862 15.3752C69.3278 16.0273 69.1986 16.7595 69.1986 17.5716C69.1986 18.3345 69.3278 19.0421 69.5862 19.6942C69.8446 20.3464 70.1953 20.9124 70.6383 21.3923C71.0936 21.8722 71.6227 22.2537 72.2256 22.5367C72.8409 22.8074 73.4931 22.9427 74.1821 22.9427C74.8712 22.9427 75.5172 22.8135 76.1202 22.5551C76.7354 22.2967 77.2707 21.9337 77.726 21.4662C78.1813 20.9986 78.5381 20.4325 78.7965 19.7681C79.0672 19.1036 79.2026 18.3714 79.2026 17.5716Z" fill="#2A1B5B"/>
<path d="M106.852 17.5715C106.852 19.122 106.587 20.537 106.058 21.8167C105.529 23.0965 104.809 24.1978 103.899 25.1206C102.988 26.0312 101.918 26.7387 100.687 27.2432C99.4689 27.7477 98.1584 28 96.7556 28C95.3652 28 94.0547 27.7416 92.8242 27.2248C91.606 26.708 90.5355 25.9881 89.6126 25.0653C88.702 24.1424 87.9822 23.0472 87.4531 21.7798C86.9239 20.5001 86.6594 19.0973 86.6594 17.5715V0H91.7167V9.22874C91.9875 8.8842 92.3135 8.57658 92.695 8.30587C93.0887 8.03516 93.5071 7.81367 93.9501 7.6414C94.4054 7.46913 94.873 7.33993 95.3529 7.25379C95.8328 7.15535 96.3003 7.10613 96.7556 7.10613C98.1584 7.10613 99.4689 7.37069 100.687 7.8998C101.918 8.41661 102.988 9.14261 103.899 10.0778C104.809 11.013 105.529 12.1204 106.058 13.4001C106.587 14.6675 106.852 16.058 106.852 17.5715ZM101.776 17.5715C101.776 16.8086 101.641 16.1011 101.37 15.4489C101.112 14.7844 100.755 14.2123 100.3 13.7324C99.8442 13.2525 99.3089 12.8772 98.6937 12.6065C98.0907 12.3358 97.4447 12.2004 96.7556 12.2004C96.0666 12.2004 95.4144 12.3542 94.7991 12.6618C94.1962 12.9572 93.6671 13.3571 93.2118 13.8616C92.7565 14.3538 92.3997 14.926 92.1413 15.5781C91.8829 16.218 91.7537 16.8824 91.7537 17.5715C91.7537 18.3344 91.8829 19.042 92.1413 19.6941C92.3997 20.3463 92.7565 20.9123 93.2118 21.3922C93.6671 21.8721 94.1962 22.2536 94.7991 22.5366C95.4144 22.8073 96.0666 22.9426 96.7556 22.9426C97.4447 22.9426 98.0907 22.8073 98.6937 22.5366C99.3089 22.2536 99.8442 21.8721 100.3 21.3922C100.755 20.9123 101.112 20.3463 101.37 19.6941C101.641 19.042 101.776 18.3344 101.776 17.5715Z" fill="#2A1B5B"/>
</g>
<defs>
<linearGradient id="paint0_linear_1_572" x1="0.147967" y1="3.20799" x2="39.8079" y2="29.3898" gradientUnits="userSpaceOnUse">
<stop offset="0.053951" stop-color="#6D5CFF"/>
<stop offset="0.559189" stop-color="#E86EFF"/>
<stop offset="0.923794" stop-color="#FFD66E"/>
</linearGradient>
<linearGradient id="paint1_linear_1_572" x1="0.147952" y1="3.20789" x2="39.8079" y2="29.3897" gradientUnits="userSpaceOnUse">
<stop offset="0.053951" stop-color="#6D5CFF"/>
<stop offset="0.559189" stop-color="#E86EFF"/>
<stop offset="0.923794" stop-color="#FFD66E"/>
</linearGradient>
<clipPath id="clip0_1_572">
<rect width="107" height="28" fill="white" transform="translate(0.0859375)"/>
</clipPath>
</defs>
</svg>
